<?xml version="1.0" standalone="no"?>
<!DOCTYPE svg PUBLIC "-//W3C//DTD SVG 20010904//EN"
 "http://www.w3.org/TR/2001/REC-SVG-20010904/DTD/svg10.dtd">
<svg version="1.0" xmlns="http://www.w3.org/2000/svg"
 width="200.000000pt" height="200.000000pt" viewBox="0 0 200.000000 200.000000"
 preserveAspectRatio="xMidYMid meet">
<metadata>
Created by potrace 1.11, written by Peter Selinger 2001-2013
</metadata>
<g transform="translate(0.000000,200.000000) scale(0.100000,-0.100000)"
fill="#000000" stroke="none">
<path d="M720 1743 c-25 -15 -46 -30 -48 -35 -2 -4 -9 -8 -16 -8 -6 0 -34 -15
-61 -32 -28 -18 -68 -42 -89 -53 -21 -11 -40 -26 -43 -32 -3 -7 -8 -11 -12 -8
-4 2 -27 -9 -52 -26 -24 -16 -50 -29 -56 -29 -9 0 -13 -17 -13 -51 0 -37 3
-48 13 -43 9 6 9 4 -1 -8 -14 -18 -12 -163 3 -187 5 -9 4 -12 -2 -8 -12 8 -11
-82 1 -102 5 -8 5 -12 0 -8 -10 6 -11 -44 0 -61 3 -6 3 -13 -1 -15 -5 -3 -7
-43 -7 -89 1 -45 3 -172 5 -280 3 -151 7 -198 16 -198 7 0 13 -5 13 -11 0 -5
4 -8 9 -4 5 3 12 1 15 -4 11 -16 87 -51 98 -45 6 4 8 3 5 -3 -4 -6 15 -21 41
-34 26 -13 49 -26 52 -29 5 -5 41 -25 134 -74 26 -14 52 -23 57 -20 5 3 9 2 8
-3 -4 -21 2 -25 19 -11 9 8 65 43 125 77 59 35 107 68 107 74 0 6 3 7 7 4 6
-7 67 27 91 50 7 7 18 13 23 13 6 0 27 11 47 25 20 14 32 25 27 25 -12 0 39
35 82 56 18 9 30 21 26 27 -4 6 -1 7 7 2 8 -5 18 -1 27 11 8 10 16 17 19 15 5
-4 163 87 174 100 3 3 13 8 23 12 11 4 15 12 11 18 -4 8 -3 9 5 5 6 -4 23 0
37 9 l25 16 -3 170 c-2 93 -7 169 -11 169 -5 0 -5 5 -1 12 4 6 7 45 7 86 -1
58 -5 77 -17 84 -9 5 -21 6 -28 2 -6 -4 -8 -3 -5 3 4 6 -10 20 -31 31 -20 10
-63 34 -95 51 -32 17 -63 28 -69 25 -6 -4 -8 -3 -4 4 3 6 -17 22 -51 39 -32
15 -60 31 -63 34 -6 8 -125 69 -134 69 -4 0 -14 7 -23 15 -8 8 -19 13 -24 10
-5 -4 -9 -1 -9 5 0 7 -7 9 -16 6 -8 -3 -12 -2 -9 4 3 6 -2 13 -12 17 -10 4
-39 19 -65 34 -25 15 -49 25 -52 22 -3 -4 -6 -2 -6 3 0 5 -35 28 -77 49 -43
22 -79 43 -81 48 -6 13 -26 7 -72 -20z m7 -148 c0 -8 -4 -12 -9 -9 -5 3 -6 10
-3 15 9 13 12 11 12 -6z m163 -69 c0 -3 -4 -8 -10 -11 -5 -3 -10 -1 -10 4 0 6
5 11 10 11 6 0 10 -2 10 -4z m10 -82 c0 -8 -19 -13 -24 -6 -3 5 1 9 9 9 8 0
15 -2 15 -3z m474 -162 c3 -5 -1 -9 -9 -9 -8 0 -12 4 -9 9 3 4 7 8 9 8 2 0 6
-4 9 -8z m70 -160 c3 -5 -1 -9 -9 -9 -8 0 -12 4 -9 9 3 4 7 8 9 8 2 0 6 -4 9
-8z m204 -167 c-3 -3 -9 2 -12 12 -6 14 -5 15 5 6 7 -7 10 -15 7 -18z m-204 7
c3 -5 -1 -9 -9 -9 -8 0 -12 4 -9 9 3 4 7 8 9 8 2 0 6 -4 9 -8z m-1039 -130
c-3 -3 -11 0 -18 7 -9 10 -8 11 6 5 10 -3 15 -9 12 -12z m95 -188 c0 -8 -19
-13 -24 -6 -3 5 1 9 9 9 8 0 15 -2 15 -3z m234 -2 c3 -5 -1 -9 -9 -9 -8 0 -12
4 -9 9 3 4 7 8 9 8 2 0 6 -4 9 -8z m-164 -158 c0 -8 -19 -13 -24 -6 -3 5 1 9
9 9 8 0 15 -2 15 -3z m234 -2 c3 -5 -1 -9 -9 -9 -8 0 -12 4 -9 9 3 4 7 8 9 8
2 0 6 -4 9 -8z m-99 -161 c3 -5 2 -12 -3 -15 -5 -3 -9 1 -9 9 0 17 3 19 12 6z
m150 -41 c3 -6 -1 -7 -9 -4 -18 7 -21 14 -7 14 6 0 13 -4 16 -10z"/>
</g>
</svg>
